<?xml version="1.0" encoding="UTF-8"?>
<svg width="134px" height="32px" viewBox="0 0 134 32" version="1.1" xmlns="http://www.w3.org/2000/svg" xmlns:xlink="http://www.w3.org/1999/xlink">
    <title>logo-poseidon</title>
    <defs>
        <linearGradient x1="50%" y1="0%" x2="50%" y2="100%" id="linearGradient-1">
            <stop stop-color="#5CACF4" offset="0%"></stop>
            <stop stop-color="#1B74C5" offset="100%"></stop>
        </linearGradient>
    </defs>
    <g id="Dashboard" stroke="none" stroke-width="1" fill="none" fill-rule="evenodd">
        <g id="Dashboard-/-Default" transform="translate(-14.000000, -11.000000)" fill-rule="nonzero">
            <g id="logo-poseidon" transform="translate(14.000000, 11.000000)">
                <path d="M42.0625,26 L42.0625,19.5898438 L43.84375,19.5898438 C46.0078125,19.5898438 47.6757813,19.1132812 48.8476563,18.1601562 C50.0195313,17.2070312 50.6054688,15.8359375 50.6054688,14.046875 C50.6054688,12.34375 50.0722656,11.0546875 49.0058594,10.1796875 C47.9394531,9.3046875 46.3359375,8.8671875 44.1953125,8.8671875 L44.1953125,8.8671875 L39.2617188,8.8671875 L39.2617188,26 L42.0625,26 Z M43.5507813,17.234375 L42.0625,17.234375 L42.0625,11.2109375 L44.0078125,11.2109375 C45.28125,11.2109375 46.21875,11.453125 46.8203125,11.9375 C47.421875,12.421875 47.7226563,13.15625 47.7226563,14.140625 C47.7226563,15.203125 47.3867188,15.984375 46.7148438,16.484375 C46.0429688,16.984375 44.9882813,17.234375 43.5507813,17.234375 L43.5507813,17.234375 Z M57.9664063,26.234375 C59.9039063,26.234375 61.415625,25.640625 62.5015625,24.453125 C63.5875,23.265625 64.1304688,21.6132812 64.1304688,19.4960938 C64.1304688,17.4492188 63.5835938,15.8222656 62.4898438,14.6152344 C61.3960938,13.4082031 59.9117188,12.8046875 58.0367188,12.8046875 C56.0757813,12.8046875 54.55625,13.3945312 53.478125,14.5742188 C52.4,15.7539062 51.8609375,17.3945312 51.8609375,19.4960938 C51.8609375,20.8476562 52.1109375,22.0351562 52.6109375,23.0585938 C53.1109375,24.0820312 53.8257813,24.8671875 54.7554688,25.4140625 C55.6851563,25.9609375 56.7554688,26.234375 57.9664063,26.234375 Z M58.0132813,23.984375 C55.8023438,23.984375 54.696875,22.4882812 54.696875,19.4960938 C54.696875,18.0664062 54.9566406,16.96875 55.4761719,16.203125 C55.9957031,15.4375 56.8335938,15.0546875 57.9898438,15.0546875 C60.1929688,15.0546875 61.2945313,16.5351562 61.2945313,19.4960938 C61.2945313,22.4882812 60.2007813,23.984375 58.0132813,23.984375 Z M69.5578125,26.234375 C71.2765625,26.234375 72.596875,25.8964844 73.51875,25.2207031 C74.440625,24.5449219 74.9015625,23.5742188 74.9015625,22.3085938 C74.9015625,21.6835938 74.784375,21.1464844 74.55,20.6972656 C74.315625,20.2480469 73.95625,19.8515625 73.471875,19.5078125 C72.9875,19.1640625 72.2101563,18.7851562 71.1398438,18.3710938 C69.8664063,17.8789062 69.0402344,17.4921875 68.6613281,17.2109375 C68.2824219,16.9296875 68.0929688,16.5859375 68.0929688,16.1796875 C68.0929688,15.3515625 68.8195313,14.9375 70.2726563,14.9375 C71.2257813,14.9375 72.4015625,15.2265625 73.8,15.8046875 L73.8,15.8046875 L74.690625,13.7304688 C73.33125,13.1132812 71.8898438,12.8046875 70.3664063,12.8046875 C68.8273438,12.8046875 67.6105469,13.1113281 66.7160156,13.7246094 C65.8214844,14.3378906 65.3742188,15.1992188 65.3742188,16.3085938 C65.3742188,17.2304688 65.6378906,17.9804688 66.1652344,18.5585938 C66.6925781,19.1367188 67.7023438,19.7148438 69.1945313,20.2929688 C69.9601563,20.5898438 70.5578125,20.8554688 70.9875,21.0898438 C71.4171875,21.3242188 71.7257813,21.5507812 71.9132813,21.7695312 C72.1007813,21.9882812 72.1945313,22.2617188 72.1945313,22.5898438 C72.1945313,23.6132812 71.346875,24.125 69.6515625,24.125 C68.3390625,24.125 66.9210938,23.7734375 65.3976563,23.0703125 L65.3976563,23.0703125 L65.3976563,25.4492188 C66.4445313,25.9726562 67.83125,26.234375 69.5578125,26.234375 Z M82.4382813,26.234375 C83.3210938,26.234375 84.10625,26.1679688 84.79375,26.0351562 C85.48125,25.9023438 86.1609375,25.6757812 86.8328125,25.3554688 L86.8328125,25.3554688 L86.8328125,23.1171875 C86.075,23.453125 85.3660156,23.6933594 84.7058594,23.8378906 C84.0457031,23.9824219 83.3328125,24.0546875 82.5671875,24.0546875 C81.403125,24.0546875 80.5007813,23.7167969 79.8601563,23.0410156 C79.2195313,22.3652344 78.8796875,21.3984375 78.840625,20.140625 L78.840625,20.140625 L87.4773438,20.140625 L87.4773438,18.6523438 C87.4773438,16.8320312 86.98125,15.4023438 85.9890625,14.3632812 C84.996875,13.3242188 83.6453125,12.8046875 81.934375,12.8046875 C80.090625,12.8046875 78.6414063,13.4101562 77.5867188,14.6210938 C76.5320313,15.8320312 76.0046875,17.4960938 76.0046875,19.6132812 C76.0046875,21.6757812 76.5730469,23.2949219 77.7097656,24.4707031 C78.8464844,25.6464844 80.4226563,26.234375 82.4382813,26.234375 Z M84.7703125,18.1484375 L78.8875,18.1484375 C78.9890625,17.0859375 79.3035156,16.2773438 79.8308594,15.7226562 C80.3582031,15.1679688 81.059375,14.890625 81.934375,14.890625 C82.809375,14.890625 83.496875,15.1660156 83.996875,15.7167969 C84.496875,16.2675781 84.7546875,17.078125 84.7703125,18.1484375 L84.7703125,18.1484375 Z M90.9007813,11.1171875 C91.3851563,11.1171875 91.7621094,10.9824219 92.0316406,10.7128906 C92.3011719,10.4433594 92.4359375,10.0742188 92.4359375,9.60546875 C92.4359375,9.11328125 92.3011719,8.734375 92.0316406,8.46875 C91.7621094,8.203125 91.3851563,8.0703125 90.9007813,8.0703125 C90.4007813,8.0703125 90.0160156,8.203125 89.7464844,8.46875 C89.4769531,8.734375 89.3421875,9.11328125 89.3421875,9.60546875 C89.3421875,10.0742188 89.4769531,10.4433594 89.7464844,10.7128906 C90.0160156,10.9824219 90.4007813,11.1171875 90.9007813,11.1171875 Z M92.2601563,26 L92.2601563,13.0390625 L89.50625,13.0390625 L89.50625,26 L92.2601563,26 Z M99.46875,26.234375 C101.171875,26.234375 102.464844,25.5898438 103.347656,24.3007812 L103.347656,24.3007812 L103.476563,24.3007812 L103.957031,26 L106.113281,26 L106.113281,7.765625 L103.347656,7.765625 L103.347656,12.4882812 C103.347656,13.0273438 103.414063,13.7617188 103.546875,14.6914062 L103.546875,14.6914062 L103.40625,14.6914062 C102.515625,13.4335938 101.21875,12.8046875 99.515625,12.8046875 C97.890625,12.8046875 96.6191406,13.3964844 95.7011719,14.5800781 C94.7832031,15.7636719 94.3242188,17.4179688 94.3242188,19.5429688 C94.3242188,21.6601562 94.7773438,23.3046875 95.6835938,24.4765625 C96.5898438,25.6484375 97.8515625,26.234375 99.46875,26.234375 Z M100.207031,24.0078125 C99.1914063,24.0078125 98.4296875,23.6308594 97.921875,22.8769531 C97.4140625,22.1230469 97.1601563,21.0273438 97.1601563,19.5898438 C97.1601563,18.1367188 97.421875,17.0175781 97.9453125,16.2324219 C98.46875,15.4472656 99.2148438,15.0546875 100.183594,15.0546875 C101.316406,15.0546875 102.148438,15.3984375 102.679688,16.0859375 C103.210938,16.7734375 103.476563,17.9335938 103.476563,19.5664062 L103.476563,19.5664062 L103.476563,19.953125 C103.460938,21.3828125 103.195313,22.4160156 102.679688,23.0527344 C102.164063,23.6894531 101.339844,24.0078125 100.207031,24.0078125 Z M114.282813,26.234375 C116.220313,26.234375 117.732031,25.640625 118.817969,24.453125 C119.903906,23.265625 120.446875,21.6132812 120.446875,19.4960938 C120.446875,17.4492188 119.9,15.8222656 118.80625,14.6152344 C117.7125,13.4082031 116.228125,12.8046875 114.353125,12.8046875 C112.392188,12.8046875 110.872656,13.3945312 109.794531,14.5742188 C108.716406,15.7539062 108.177344,17.3945312 108.177344,19.4960938 C108.177344,20.8476562 108.427344,22.0351562 108.927344,23.0585938 C109.427344,24.0820312 110.142188,24.8671875 111.071875,25.4140625 C112.001563,25.9609375 113.071875,26.234375 114.282813,26.234375 Z M114.329688,23.984375 C112.11875,23.984375 111.013281,22.4882812 111.013281,19.4960938 C111.013281,18.0664062 111.273047,16.96875 111.792578,16.203125 C112.312109,15.4375 113.15,15.0546875 114.30625,15.0546875 C116.509375,15.0546875 117.610938,16.5351562 117.610938,19.4960938 C117.610938,22.4882812 116.517188,23.984375 114.329688,23.984375 Z M125.264844,26 L125.264844,19.5429688 C125.264844,17.9257812 125.534375,16.7734375 126.073438,16.0859375 C126.6125,15.3984375 127.464063,15.0546875 128.628125,15.0546875 C129.503125,15.0546875 130.141797,15.3007812 130.544141,15.7929688 C130.946484,16.2851562 131.147656,17.03125 131.147656,18.03125 L131.147656,18.03125 L131.147656,26 L133.913281,26 L133.913281,17.5507812 C133.913281,14.3867188 132.358594,12.8046875 129.249219,12.8046875 C128.374219,12.8046875 127.577344,12.9726562 126.858594,13.3085938 C126.139844,13.6445312 125.585156,14.1210938 125.194531,14.7382812 L125.194531,14.7382812 L125.053906,14.7382812 L124.667188,13.0390625 L122.510938,13.0390625 L122.510938,26 L125.264844,26 Z" id="Poseidon" fill="#FFFFFF"></path>
                <g id="icon-poseidon" fill="url(#linearGradient-1)">
                    <path d="M14.713651,0.0833000057 L18.3449012,2.80812019 L16.6646211,5.04756034 L15.93972,4.50430001 L15.93672,17.5943 L21.3445415,19.5644413 L25.0455117,1.82098012 L28.980282,5.73251039 L28,8 L26.7325818,7.44695051 L23.4253616,23.3023016 L15.93672,20.5753 L15.9343811,31.0237823 L13.4843809,31.0237823 L13.48672,20.5633 L5.96638041,23.3023016 L2.66735018,7.44695051 L1,8 L0.419720029,5.73251039 L4.3558903,1.81972012 L8.04860055,19.5644413 L13.48672,17.5823 L13.48972,4.50030001 L12.7613509,5.04756034 L11.0810708,2.80812019 L14.713651,0.0833000057 Z" id="Path-2"></path>
                </g>
            </g>
        </g>
    </g>
</svg>