<?xml version="1.0" encoding="UTF-8"?>
<svg width="1140px" height="655px" viewBox="0 0 1140 655" version="1.1" xmlns="http://www.w3.org/2000/svg" xmlns:xlink="http://www.w3.org/1999/xlink">
    <title>undraw_progressive_app_m9ms</title>
    <g id="Page-1" stroke="none" stroke-width="1" fill="none" fill-rule="evenodd">
        <g id="Desktop-HD" transform="translate(-150.000000, -162.000000)" fill-rule="nonzero">
            <g id="undraw_progressive_app_m9ms" transform="translate(150.000000, 162.000000)">
                <circle id="Oval" fill="#F2F2F2" cx="246.82682" cy="521.76476" r="59.24334"></circle>
                <circle id="Oval" fill="#FFFFFF" cx="256.45989" cy="513.095" r="59.24334"></circle>
                <rect id="Rectangle" fill="#3F3D56" x="304.17137" y="447.54324" width="732.99951" height="2"></rect>
                <path d="M683.79279,18.65217 L423.62319,18.65217 L423.62319,13.28985 L305.65219,13.28985 L305.65219,18.65217 L44.41011,18.65217 C39.7426924,18.6521647 35.2664384,20.5062861 31.9660748,23.8066478 C28.6657113,27.1070095 26.81159,31.5832624 26.81159,36.25068 L26.81159,392.50287 C26.81159,402.222278 34.6907015,410.10145 44.41011,410.10145 L683.79279,410.10145 C693.512198,410.10145 701.39131,402.222278 701.39131,392.50287 L701.39131,36.25068 C701.39131,31.5832624 699.537189,27.1070095 696.236825,23.8066478 C692.936462,20.5062861 688.460208,18.6521647 683.79279,18.65217 L683.79279,18.65217 Z" id="Path" fill="#3F3D56"></path>
                <rect id="Rectangle" fill="#FFFFFF" x="50.4058" y="49.75362" width="627.3913" height="353.91304"></rect>
                <circle id="Oval" fill="#FFFFFF" cx="363.56522" cy="33.66667" r="6.43478"></circle>
                <polygon id="Path" fill="#C8CFDC" opacity="0.3" points="498.374 403.667 50.406 403.667 50.406 49.754"></polygon>
                <circle id="Oval" fill="#F2F2F2" cx="148.57375" cy="316.87641" r="60.3068"></circle>
                <rect id="Rectangle" fill="#3F3D56" x="509.95272" y="240.62175" width="58.6052" height="12.24586"></rect>
                <rect id="Rectangle" fill="#3F3D56" x="439.10165" y="145.27896" width="200.30733" height="5.24823"></rect>
                <rect id="Rectangle" fill="#3F3D56" x="439.10165" y="161.89834" width="200.30733" height="5.24823"></rect>
                <rect id="Rectangle" fill="#3F3D56" x="439.10165" y="178.51773" width="200.30733" height="5.24823"></rect>
                <rect id="Rectangle" fill="#3F3D56" x="439.10165" y="195.13711" width="200.30733" height="5.24823"></rect>
                <rect id="Rectangle" fill="#3F3D56" x="439.10165" y="211.7565" width="200.30733" height="5.24823"></rect>
                <rect id="Rectangle" fill="#F2F2F2" x="614.91726" y="56.9338" width="24.49173" height="24.49173"></rect>
                <path d="M650.78014,92.79669 L621.04014,92.79669 L621.04014,63.05669 L650.78014,63.05669 L650.78014,92.79669 Z M622.33323,91.50369 L649.4871,91.50369 L649.4871,64.34978 L622.33323,64.34978 L622.33323,91.50369 Z" id="Shape" fill="#3F3D56"></path>
                <path d="M719.00709,397.23186 L657.77778,397.23186 L657.77778,392.82033 C657.777788,392.58834 657.685634,392.36585 657.521592,392.201808 C657.35755,392.037766 657.13506,391.94562 656.90307,391.94562 L635.91017,391.94562 C635.67818,391.94562 635.45569,392.037766 635.291648,392.201808 C635.127606,392.36585 635.035452,392.58834 635.03546,392.82033 L635.03546,397.23186 L621.91489,397.23186 L621.91489,392.82033 C621.914901,392.588341 621.822749,392.36585 621.658709,392.201808 C621.494669,392.037766 621.272179,391.94562 621.04019,391.94562 L600.04728,391.94562 C599.815292,391.94562 599.592804,392.03777 599.428764,392.201811 C599.264725,392.365853 599.172572,392.588342 599.17258,392.82033 L599.17258,397.23186 L586.05201,397.23186 L586.05201,392.82033 C586.052018,392.588342 585.959865,392.365853 585.795826,392.201811 C585.631786,392.03777 585.409298,391.94562 585.17731,391.94562 L564.18444,391.94562 C563.95245,391.94562 563.72996,392.037766 563.565918,392.201808 C563.401876,392.36585 563.309722,392.58834 563.30973,392.82033 L563.30973,397.23186 L550.18913,397.23186 L550.18913,392.82033 C550.189138,392.58834 550.096984,392.36585 549.932942,392.201808 C549.7689,392.037766 549.54641,391.94562 549.31442,391.94562 L528.32151,391.94562 C528.089522,391.94562 527.867034,392.03777 527.702994,392.201811 C527.538955,392.365853 527.446802,392.588342 527.44681,392.82033 L527.44681,397.23186 L514.32624,397.23186 L514.32624,392.82033 C514.326248,392.588342 514.234095,392.365853 514.070056,392.201811 C513.906016,392.03777 513.683528,391.94562 513.45154,391.94562 L492.45863,391.94562 C492.226641,391.94562 492.004151,392.037766 491.840111,392.201808 C491.676071,392.36585 491.583919,392.588341 491.58393,392.82033 L491.58393,397.23186 L478.46336,397.23186 L478.46336,392.82033 C478.463368,392.58834 478.371214,392.36585 478.207172,392.201808 C478.04313,392.037766 477.82064,391.94562 477.58865,391.94562 L456.59575,391.94562 C456.36376,391.94562 456.14127,392.037766 455.977228,392.201808 C455.813186,392.36585 455.721032,392.58834 455.72104,392.82033 L455.72104,397.23186 L442.60044,397.23186 L442.60044,392.82033 C442.600448,392.588342 442.508295,392.365853 442.344256,392.201811 C442.180216,392.03777 441.957728,391.94562 441.72574,391.94562 L277.28132,391.94562 C277.049332,391.94562 276.826844,392.03777 276.662804,392.201811 C276.498765,392.365853 276.406612,392.588342 276.40662,392.82033 L276.40662,397.23186 L263.28605,397.23186 L263.28605,392.82033 C263.286058,392.588342 263.193905,392.365853 263.029866,392.201811 C262.865826,392.03777 262.643338,391.94562 262.41135,391.94562 L241.41844,391.94562 C241.186451,391.94562 240.963961,392.037766 240.799921,392.201808 C240.635881,392.36585 240.543729,392.588341 240.54374,392.82033 L240.54374,397.23186 L227.42317,397.23186 L227.42317,392.82033 C227.423178,392.58834 227.331024,392.36585 227.166982,392.201808 C227.00294,392.037766 226.78045,391.94562 226.54846,391.94562 L205.55556,391.94562 C205.32357,391.94562 205.10108,392.037766 204.937038,392.201808 C204.772996,392.36585 204.680842,392.58834 204.68085,392.82033 L204.68085,397.23186 L191.56028,397.23186 L191.56028,392.82033 C191.560291,392.588341 191.468139,392.36585 191.304099,392.201808 C191.140059,392.037766 190.917569,391.94562 190.68558,391.94562 L169.69267,391.94562 C169.460682,391.94562 169.238194,392.03777 169.074154,392.201811 C168.910115,392.365853 168.817962,392.588342 168.81797,392.82033 L168.81797,397.23186 L155.69744,397.23186 L155.69744,392.82033 C155.697448,392.588342 155.605295,392.365853 155.441256,392.201811 C155.277216,392.03777 155.054728,391.94562 154.82274,391.94562 L133.82979,391.94562 C133.5978,391.94562 133.37531,392.037766 133.211268,392.201808 C133.047226,392.36585 132.955072,392.58834 132.95508,392.82033 L132.95508,397.23186 L119.83452,397.23186 L119.83452,392.82033 C119.834528,392.58834 119.742374,392.36585 119.578332,392.201808 C119.41429,392.037766 119.1918,391.94562 118.95981,391.94562 L97.9669,391.94562 C97.7349118,391.94562 97.5124238,392.03777 97.3483843,392.201811 C97.1843448,392.365853 97.092192,392.588342 97.0922,392.82033 L97.0922,397.23186 L83.97163,397.23186 L83.97163,392.82033 C83.971638,392.588342 83.8794852,392.365853 83.7154457,392.201811 C83.5514062,392.03777 83.3289182,391.94562 83.09693,391.94562 L62.10402,391.94562 C61.872031,391.94562 61.6495415,392.037766 61.4855014,392.201808 C61.3214613,392.36585 61.2293094,392.588341 61.22932,392.82033 L61.22932,397.23186 L20.99291,397.23186 C9.39885053,397.231871 0,406.630711 0,418.22477 L0,427.71727 C0,439.311311 9.39886938,448.71012 20.99291,448.71012 L719.00709,448.71012 C730.601133,448.71012 740,439.311313 740,427.71727 L740,418.22477 C740,406.630708 730.601152,397.231866 719.00709,397.23186 L719.00709,397.23186 Z" id="Path" fill="#3F3D56"></path>
                <path d="M163.17137,354.54324 C121.197729,354.54324 87.17137,320.516881 87.17137,278.54324 C87.17137,236.569599 121.197729,202.54324 163.17137,202.54324 C205.145011,202.54324 239.17137,236.569599 239.17137,278.54324 C239.123899,320.497202 205.125332,354.495769 163.17137,354.54324 Z M163.17137,204.54324 C122.302299,204.54324 89.17137,237.674169 89.17137,278.54324 C89.17137,319.412311 122.302299,352.54324 163.17137,352.54324 C204.040441,352.54324 237.17137,319.412311 237.17137,278.54324 C237.125161,237.693324 204.021286,204.589449 163.17137,204.54324 Z" id="Shape" fill="#3F3D56"></path>
                <rect id="Rectangle" fill="#3F3D56" x="586.17137" y="32.54324" width="254.99951" height="2"></rect>
                <rect id="Rectangle" fill="#3F3D56" x="406.17137" y="560.54324" width="732.99951" height="2"></rect>
                <rect id="Rectangle" fill="#3F3D56" x="192.67161" y="652.54324" width="254.99951" height="2"></rect>
                <rect id="Rectangle" fill="#FFFFFF" x="471" y="550" width="28" height="28"></rect>
                <path d="M516,562 L482,562 L482,528 L516,528 L516,562 Z M483.47826,560.52174 L514.52174,560.52174 L514.52174,529.47826 L483.47826,529.47826 L483.47826,560.52174 Z" id="Shape" fill="#3F3D56"></path>
                <rect id="Rectangle" fill="#FFFFFF" x="796" y="22" width="28" height="28"></rect>
                <path d="M841,34 L807,34 L807,-1.42108547e-14 L841,-1.42108547e-14 L841,34 Z M808.47826,32.52174 L839.52174,32.52174 L839.52174,1.47826 L808.47826,1.47826 L808.47826,32.52174 Z" id="Shape" fill="#3F3D56"></path>
                <rect id="Rectangle" fill="#FFFFFF" x="1078" y="550" width="28" height="28"></rect>
                <path d="M1123,562 L1089,562 L1089,528 L1123,528 L1123,562 Z M1090.47826,560.52174 L1121.52174,560.52174 L1121.52174,529.47826 L1090.47826,529.47826 L1090.47826,560.52174 Z" id="Shape" fill="#3F3D56"></path>
                <path d="M1057.17139,231.95822 L1054.79275,231.95822 L1054.79275,166.79662 C1054.79276,156.79429 1050.81935,147.201628 1043.74662,140.12892 C1036.6739,133.056213 1027.08123,129.08285 1017.0789,129.08285 L879.02544,129.08285 C869.023106,129.08285 859.430429,133.056201 852.357701,140.12891 C845.284973,147.201619 841.31157,156.794286 841.31157,166.79662 L841.31157,524.27801 C841.31157,534.280345 845.284973,543.873013 852.357701,550.945723 C859.430428,558.018434 869.023105,561.99179 879.02544,561.99179 L1017.07892,561.99179 C1027.08125,561.99179 1036.67392,558.018426 1043.74665,550.945716 C1050.81937,543.873006 1054.79278,534.280342 1054.79277,524.27801 L1054.79277,278.34131 L1057.17139,278.34131 L1057.17139,231.95822 Z" id="Path" fill="#3F3D56"></path>
                <path d="M1046.76144,169.01321 L1046.76144,525.97321 C1046.76407,541.52832 1034.15639,554.14321 1018.60128,554.14321 L879.88144,554.14321 C864.326365,554.14321 851.718739,541.528285 851.72144,525.97321 L851.72144,169.01321 C851.72144,153.461558 864.329788,140.85321 879.88144,140.85321 L896.71144,140.85321 C895.029509,144.978851 895.511598,149.671051 897.997294,153.368498 C900.48299,157.065946 904.646128,159.283475 909.10144,159.28321 L988.19144,159.28321 C992.646766,159.283517 996.809931,157.065995 999.295629,153.368531 C1001.78133,149.671066 1002.26338,144.978842 1000.58139,140.85321 L1018.60139,140.85321 C1034.15304,140.85321 1046.76144,153.461556 1046.76144,169.01321 Z" id="Path" fill="#FFFFFF"></path>
                <rect id="Rectangle" fill="#3F3D56" x="928.57968" y="376.21769" width="41.32357" height="12.24586"></rect>
                <rect id="Rectangle" fill="#3F3D56" x="878.62133" y="280.8749" width="141.24028" height="5.24823"></rect>
                <rect id="Rectangle" fill="#3F3D56" x="878.62133" y="297.49429" width="141.24028" height="5.24823"></rect>
                <rect id="Rectangle" fill="#3F3D56" x="878.62133" y="314.11367" width="141.24028" height="5.24823"></rect>
                <rect id="Rectangle" fill="#3F3D56" x="878.62133" y="330.73306" width="141.24028" height="5.24823"></rect>
                <rect id="Rectangle" fill="#3F3D56" x="878.62133" y="347.35244" width="141.24028" height="5.24823"></rect>
                <rect id="Rectangle" fill="#F2F2F2" x="929.68352" y="211.17873" width="24.49173" height="24.49173"></rect>
                <path d="M939.0593,217.30325 L939.0593,247.04325 L968.7993,247.04325 L968.7993,217.30325 L939.0593,217.30325 Z M967.5093,245.75325 L940.3493,245.75325 L940.3493,218.59325 L967.5093,218.59325 L967.5093,245.75325 Z" id="Shape" fill="#3F3D56"></path>
                <path d="M1046.76144,487.85324 L1046.76144,525.97324 C1046.76407,541.52835 1034.15639,554.14044 1018.60128,554.14324 L879.88144,554.14324 C864.326365,554.140418 851.718739,541.528315 851.72144,525.97324 L851.72144,333.76324 L968.59144,426.09324 L970.59144,427.67324 L992.33144,444.84324 L994.36144,446.45324 L1046.76144,487.85324 Z" id="Path" fill="#C8CFDC" opacity="0.300544085"></path>
                <circle id="Oval" fill="#F2F2F2" cx="937.24147" cy="498.70691" r="43.86783"></circle>
                <path d="M320.17137,654.54324 C272.122597,654.54324 233.17137,615.592013 233.17137,567.54324 C233.17137,519.494467 272.122597,480.54324 320.17137,480.54324 C368.220143,480.54324 407.17137,519.494467 407.17137,567.54324 C407.117044,615.569492 368.197622,654.488914 320.17137,654.54324 L320.17137,654.54324 Z M320.17137,482.54324 C273.227166,482.54324 235.17137,520.599036 235.17137,567.54324 C235.17137,614.487444 273.227166,652.54324 320.17137,652.54324 C367.115574,652.54324 405.17137,614.487444 405.17137,567.54324 C405.118306,520.621034 367.093576,482.596304 320.17137,482.54324 Z" id="Shape" fill="#3F3D56"></path>
                <path d="M950.17137,532.54324 C919.795709,532.54324 895.17137,507.918901 895.17137,477.54324 C895.17137,447.167579 919.795709,422.54324 950.17137,422.54324 C980.547031,422.54324 1005.17137,447.167579 1005.17137,477.54324 C1005.13708,507.904685 980.532815,532.508946 950.17137,532.54324 Z M950.17137,424.54324 C920.900278,424.54324 897.17137,448.272148 897.17137,477.54324 C897.17137,506.814332 920.900278,530.54324 950.17137,530.54324 C979.442462,530.54324 1003.17137,506.814332 1003.17137,477.54324 C1003.13851,448.285771 979.428839,424.576102 950.17137,424.54324 Z" id="Shape" fill="#3F3D56"></path>
            </g>
        </g>
    </g>
</svg>