<?xml version="1.0" encoding="UTF-8"?>
<svg width="1011px" height="520px" viewBox="0 0 1011 520" version="1.1" xmlns="http://www.w3.org/2000/svg" xmlns:xlink="http://www.w3.org/1999/xlink">
    <title>features</title>
    <g id="Page-1" stroke="none" stroke-width="1" fill="none" fill-rule="evenodd">
        <g id="features" fill-rule="nonzero">
            <rect id="Rectangle" fill="#778398" transform="translate(653.384252, 217.088034) rotate(-74.209910) translate(-653.384252, -217.088034) " x="503.211152" y="-49.1279159" width="300.3462" height="532.4319"></rect>
            <circle id="Oval" fill="#FDFEFF" cx="446.92875" cy="12.22867" r="4.24322"></circle>
            <circle id="Oval" fill="#FDFEFF" cx="459.99468" cy="15.92352" r="4.24322"></circle>
            <circle id="Oval" fill="#FDFEFF" cx="473.06061" cy="19.61836" r="4.24322"></circle>
            <path d="M709.98352,183.52959 C703.124842,182.233011 696.069661,182.399527 689.27979,184.01824 C691.256661,177.229605 691.755723,170.096144 690.74336,163.09838 C683.751235,165.629354 677.42387,169.712534 672.23698,175.04093 C670.608683,167.785292 667.356675,160.993209 662.72546,155.17535 C658.198354,160.606635 654.887794,166.94505 653.01679,173.76362 C648.080144,168.828845 642.156983,164.992262 635.63502,162.505 C635.63502,162.505 632.54487,178.221 639.98439,191.11687 C646.6059,202.59473 659.32788,207.96595 662.0475,209.00927 L662.11121,209.08569 L662.14539,209.04686 C662.42139,209.15155 662.57593,209.20495 662.57593,209.20495 C662.57593,209.20495 662.63438,208.90308 662.71493,208.36437 C662.76382,208.30397 662.81327,208.24254 662.86732,208.17476 C662.87788,208.26076 662.88781,208.33892 662.89783,208.41598 C662.6843,208.91714 662.57594,209.20498 662.57594,209.20498 C662.57594,209.20498 662.7356,209.24038 663.02558,209.29574 L663.03435,209.34674 L663.12864,209.315 C665.99204,209.85047 679.64272,211.937 691.29443,205.62656 C704.38569,198.5365 709.98352,183.52959 709.98352,183.52959 Z" id="Path" fill="#FDFEFF"></path>
            <circle id="Oval" fill="#FDFEFF" cx="684.59221" cy="132.35165" r="11.03237"></circle>
            <rect id="Rectangle" fill="#FDFEFF" transform="translate(656.322798, 232.319562) rotate(15.790090) translate(-656.322798, -232.319562) " x="484.048058" y="228.571462" width="344.54948" height="7.4962"></rect>
            <rect id="Rectangle" fill="#FDFEFF" transform="translate(532.938747, 263.205306) rotate(15.790090) translate(-532.938747, -263.205306) " x="503.236207" y="233.502766" width="59.40508" height="59.40508"></rect>
            <rect id="Rectangle" fill="#FDFEFF" transform="translate(639.099419, 293.225916) rotate(15.790090) translate(-639.099419, -293.225916) " x="609.396879" y="263.523376" width="59.40508" height="59.40508"></rect>
            <rect id="Rectangle" fill="#FDFEFF" transform="translate(745.260084, 323.246526) rotate(15.790090) translate(-745.260084, -323.246526) " x="715.557544" y="293.543986" width="59.40508" height="59.40508"></rect>
            <rect id="Rectangle" fill="#FDFEFF" transform="translate(520.930517, 305.669573) rotate(15.790090) translate(-520.930517, -305.669573) " x="498.865772" y="303.123643" width="44.12949" height="5.09186"></rect>
            <rect id="Rectangle" fill="#FDFEFF" transform="translate(627.091182, 335.690183) rotate(15.790090) translate(-627.091182, -335.690183) " x="605.026437" y="333.144253" width="44.12949" height="5.09186"></rect>
            <rect id="Rectangle" fill="#FDFEFF" transform="translate(733.251855, 365.710793) rotate(15.790090) translate(-733.251855, -365.710793) " x="711.18711" y="363.164863" width="44.12949" height="5.09186"></rect>
            <ellipse id="Oval" fill="#778398" opacity="0.2" cx="284.60018" cy="390.5" rx="284" ry="10.5"></ellipse>
            <ellipse id="Oval" fill="#778398" opacity="0.2" cx="789.12774" cy="509.5" rx="221" ry="10.5"></ellipse>
            <path d="M680.73597,428 L744.49387,428 L744.49387,454.66361 L707.39958,454.66361 L707.39958,481.32721 L744.49719,481.32721 L744.49719,507.98921 L680.73597,507.98921 L680.73597,428 Z M757.24713,428 L821.00671,428 L821.00671,451.1856 L783.91071,451.1856 L783.91071,455.82239 L821.00671,455.82239 L821.00671,509.14961 L757.24878,509.14961 L757.24878,484.80192 L794.34478,484.80192 L794.34478,480.16513 L757.24548,480.16513 L757.24548,428 L757.24713,428 Z M833.75994,428 L897.51952,428 L897.51952,451.1856 L860.42352,451.1856 L860.42352,455.82239 L897.51952,455.82239 L897.51952,509.14961 L833.75994,509.14961 L833.75994,484.80192 L870.85594,484.80192 L870.85594,480.16513 L833.7616,480.16513 L833.7616,428 L833.75994,428 Z" id="Shape" fill="#778398"></path>
            <path d="M123.48999,306 L149.79226,306 L149.79226,331.98626 L173.85326,331.98626 L173.85326,306 L200.15715,306 L200.15715,384.69291 L173.85487,384.69291 L173.85487,358.342 L149.79387,358.342 L149.79387,384.69291 L123.49161,384.69291 L123.49161,306 L123.48999,306 Z M234.74392,332.09646 L211.59208,332.09646 L211.59208,306 L284.21748,306 L284.21748,332.09646 L261.05106,332.09646 L261.05106,384.69291 L234.74879,384.69291 L234.74879,332.09646 L234.74392,332.09646 Z M295.74316,306 L323.16851,306 L340.03893,333.65061 L356.89312,306 L384.3298,306 L384.3298,384.69291 L358.13448,384.69291 L358.13448,345.6884 L340.03887,373.668 L339.58511,373.668 L321.47823,345.6884 L321.47823,384.69291 L295.74316,384.69291 L295.74316,306 Z M397.41937,306 L423.72975,306 L423.72975,358.68234 L460.71825,358.68234 L460.71825,384.69291 L397.41776,384.69291 L397.41776,306 L397.41937,306 Z" id="Shape" fill="#778398"></path>
        </g>
    </g>
</svg>