<?xml version="1.0" encoding="UTF-8"?>
<svg width="1014px" height="503px" viewBox="0 0 1014 503" version="1.1" xmlns="http://www.w3.org/2000/svg" xmlns:xlink="http://www.w3.org/1999/xlink">
    <title>undraw_moonlight_5ksn</title>
    <g id="Page-1" stroke="none" stroke-width="1" fill="none" fill-rule="evenodd">
        <g id="Desktop-HD" transform="translate(-170.000000, -180.000000)" fill-rule="nonzero">
            <g id="undraw_moonlight_5ksn" transform="translate(170.000000, 180.000000)">
                <path d="M506.97464,0 C228.30164,0 2.15064,224.83411 -3e-05,503 L1013.94928,503 C1011.79864,224.83411 785.64771,0 506.97464,0 Z" id="Path" fill="#425573"></path>
                <circle id="Oval" fill="#F2F2F2" cx="480.78756" cy="52.54395" r="5"></circle>
                <circle id="Oval" fill="#F2F2F2" cx="323.78756" cy="217.54395" r="2"></circle>
                <circle id="Oval" fill="#F2F2F2" cx="618.78756" cy="311.54395" r="2"></circle>
                <circle id="Oval" fill="#F2F2F2" cx="97.78756" cy="286.54395" r="2"></circle>
                <circle id="Oval" fill="#F2F2F2" cx="877.78756" cy="215.54395" r="2"></circle>
                <circle id="Oval" fill="#F2F2F2" cx="235.78756" cy="236.54395" r="2"></circle>
                <circle id="Oval" fill="#F2F2F2" cx="563.78756" cy="196.54395" r="2"></circle>
                <circle id="Oval" fill="#F2F2F2" cx="629.78756" cy="52.54395" r="2"></circle>
                <rect id="Rectangle" fill="#F2F2F2" x="211.78756" y="288.54395" width="2" height="1"></rect>
                <rect id="Rectangle" fill="#F2F2F2" x="270.78756" y="135.54395" width="2" height="1"></rect>
                <rect id="Rectangle" fill="#F2F2F2" x="414.78756" y="249.54395" width="2" height="1"></rect>
                <rect id="Rectangle" fill="#F2F2F2" x="796.78756" y="293.54395" width="2" height="1"></rect>
                <rect id="Rectangle" fill="#F2F2F2" x="677.78756" y="140.54395" width="2" height="1"></rect>
                <rect id="Rectangle" fill="#3F3D56" x="225.08928" y="363.68007" width="3.51907" height="139.0033"></rect>
                <path d="M261.08539,339.39444 C261.30939,388.00044 227.11252,427.56181 227.11252,427.56181 C227.11252,427.56181 192.55243,388.31732 192.32841,339.71133 C192.10439,291.10534 226.30128,251.544 226.30128,251.544 C226.30128,251.544 260.86137,290.78845 261.08539,339.39444 Z" id="Path" fill="#3F3D56"></path>
                <rect id="Rectangle" fill="#3F3D56" x="180.60974" y="322.47213" width="4.56231" height="180.21124"></rect>
                <path d="M227.27699,303.438 C227.56742,366.45338 183.23277,417.74286 183.23277,417.74286 C183.23277,417.74286 138.42723,366.86422 138.13677,303.84886 C137.84631,240.8335 182.18103,189.544 182.18103,189.544 C182.18103,189.544 226.98656,240.42259 227.27699,303.438 Z" id="Path" fill="#3F3D56"></path>
                <rect id="Rectangle" fill="#B1B9C9" x="712.08928" y="363.68007" width="3.51907" height="139.0033"></rect>
                <path d="M748.08539,381.39444 C748.30939,430.00044 714.11252,469.56181 714.11252,469.56181 C714.11252,469.56181 679.55243,430.31732 679.32841,381.71133 C679.10439,333.10534 713.30128,293.544 713.30128,293.544 C713.30128,293.544 747.86137,332.78845 748.08539,381.39444 Z" id="Path" fill="#3F3D56"></path>
                <rect id="Rectangle" fill="#3F3D56" x="141.08928" y="363.68007" width="3.51907" height="139.0033"></rect>
                <path d="M177.08539,339.39444 C177.30939,388.00044 143.11252,427.56181 143.11252,427.56181 C143.11252,427.56181 108.55243,388.31732 108.32841,339.71133 C108.10439,291.10534 142.30128,251.544 142.30128,251.544 C142.30128,251.544 176.86137,290.78845 177.08539,339.39444 Z" id="Path" fill="#3F3D56"></path>
                <rect id="Rectangle" fill="#3F3D56" x="451.08928" y="363.68007" width="3.51907" height="139.0033"></rect>
                <path d="M487.08539,339.39444 C487.30939,388.00044 453.11252,427.56181 453.11252,427.56181 C453.11252,427.56181 418.55243,388.31732 418.32841,339.71133 C418.10439,291.10534 452.30128,251.544 452.30128,251.544 C452.30128,251.544 486.86137,290.78845 487.08539,339.39444 Z" id="Path" fill="#3F3D56"></path>
                <rect id="Rectangle" fill="#3F3D56" x="406.60974" y="322.47213" width="4.56231" height="180.21124"></rect>
                <path d="M453.27699,303.438 C453.56742,366.45338 409.23277,417.74286 409.23277,417.74286 C409.23277,417.74286 364.42723,366.86422 364.13677,303.84886 C363.84631,240.8335 408.18103,189.544 408.18103,189.544 C408.18103,189.544 452.98656,240.42259 453.27699,303.438 Z" id="Path" fill="#3F3D56"></path>
                <rect id="Rectangle" fill="#3F3D56" x="367.08928" y="363.68007" width="3.51907" height="139.0033"></rect>
                <path d="M403.08539,339.39444 C403.30939,388.00044 369.11252,427.56181 369.11252,427.56181 C369.11252,427.56181 334.55243,388.31732 334.32841,339.71133 C334.10439,291.10534 368.30128,251.544 368.30128,251.544 C368.30128,251.544 402.86137,290.78845 403.08539,339.39444 Z" id="Path" fill="#3F3D56"></path>
                <path d="M738.36202,428.41334 L679.55843,374.34479 C679.39962,376.77454 679.31697,379.23035 679.32833,381.71131 C679.55245,430.31739 714.11251,469.56177 714.11251,469.56177 C724.174499,457.112256 732.345567,443.246961 738.36202,428.41334 Z" id="Path" fill="#B1B9C9"></path>
                <path d="M300.64374,490.2839 C302.65849,497.73163 309.55946,502.3442 309.55946,502.3442 C309.55946,502.3442 313.19388,494.88161 311.17913,487.43388 C309.16438,479.98615 302.26341,475.37359 302.26341,475.37359 C302.26341,475.37359 298.62899,482.83617 300.64374,490.2839 Z" id="Path" fill="#3F3D56"></path>
                <path d="M303.60427,488.68331 C309.13277,494.06508 309.80804,502.33812 309.80804,502.33812 C309.80804,502.33812 301.51983,501.88558 295.99133,496.50381 C290.46283,491.12204 289.78756,482.84899 289.78756,482.84899 C289.78756,482.84899 298.07577,483.30153 303.60427,488.68331 Z" id="Path" fill="#3F3D56"></path>
                <path d="M584.64374,490.2839 C586.65849,497.73163 593.55946,502.3442 593.55946,502.3442 C593.55946,502.3442 597.19388,494.88161 595.17913,487.43388 C593.16438,479.98615 586.26341,475.37359 586.26341,475.37359 C586.26341,475.37359 582.62899,482.83617 584.64374,490.2839 Z" id="Path" fill="#B1B9C9"></path>
                <path d="M587.60427,488.68331 C593.13277,494.06508 593.80804,502.33812 593.80804,502.33812 C593.80804,502.33812 585.51983,501.88558 579.99133,496.50381 C574.46283,491.12204 573.78756,482.84899 573.78756,482.84899 C573.78756,482.84899 582.07577,483.30153 587.60427,488.68331 Z" id="Path" fill="#B1B9C9"></path>
                <path d="M76.64374,490.2839 C78.65849,497.73163 85.55946,502.3442 85.55946,502.3442 C85.55946,502.3442 89.19388,494.88161 87.17913,487.43388 C85.16438,479.98615 78.26341,475.37359 78.26341,475.37359 C78.26341,475.37359 74.62899,482.83617 76.64374,490.2839 Z" id="Path" fill="#3F3D56"></path>
                <path d="M79.60427,488.68331 C85.13277,494.06508 85.80804,502.33812 85.80804,502.33812 C85.80804,502.33812 77.51983,501.88558 71.99133,496.50381 C66.46283,491.12204 65.78756,482.84899 65.78756,482.84899 C65.78756,482.84899 74.07577,483.30153 79.60427,488.68331 Z" id="Path" fill="#3F3D56"></path>
                <path d="M387.33278,220.70747 L483.84304,366.36915 C485.998788,357.539612 487.087358,348.483313 487.085413,339.39442 C486.97615,315.69242 478.70211,294.21931 470.25222,278.43442 L465.78756,279.54392 L469.98671,277.94199 C465.011001,268.560315 459.084759,259.714561 452.30129,251.544 C452.30129,251.544 449.83889,254.394 446.24184,259.49865 C433.56227,218.37042 408.18105,189.544 408.18105,189.544 C400.259132,199.247205 393.278262,209.682035 387.33278,220.70747 L387.33278,220.70747 Z" id="Path" fill="#B1B9C9"></path>
                <path d="M942.61749,496.78885 C944.206717,496.78885 945.49506,495.500527 945.49506,493.9113 C945.49506,492.322073 944.206717,491.03375 942.61749,491.03375 L918.95764,491.03375 C920.546865,494.212204 919.258543,498.077172 916.08009,499.6664 C916.08009,501.255627 917.368413,502.54395 918.95764,502.54395 L942.61751,502.54395 C943.64556,502.54395 944.595517,501.995492 945.109542,501.105175 C945.623567,500.214858 945.623567,499.117942 945.109542,498.227625 C944.595517,497.337308 943.64556,496.78885 942.61751,496.78885 L942.61749,496.78885 Z" id="Path" fill="#F2F2F2" opacity="0.1"></path>
                <path d="M886.38327,490.85125 C886.78756,506.54395 877.29527,502.54395 865.78756,502.54395 C854.27985,502.54395 844.78756,504.54395 844.709894,490.85125 C844.67182,484.10853 854.10742,482.64192 865.61517,482.64192 C877.12292,482.64192 886.20964,484.11066 886.38327,490.85125 Z" id="Path" fill="#3F3D56"></path>
                <path d="M913.30513,497.05305 C913.119374,496.953962 912.917377,496.888936 912.7087,496.86105 C911.664563,496.69527 910.62998,496.474091 909.60933,496.19845 C908.584379,495.920333 907.642737,495.396404 906.86605,494.67209 C906.576135,494.331713 906.252412,494.02165 905.89986,493.74667 C905.534439,493.470948 905.041173,493.435508 904.64009,493.65616 C904.599699,493.687963 904.562349,493.723449 904.52852,493.76216 C904.3857,493.6678 904.242797,493.573467 904.09981,493.47916 C903.338337,492.97794 902.5732,492.482357 901.8044,491.99241 L901.77315,491.97251 C901.795109,491.851736 901.795854,491.728059 901.77535,491.60703 C901.641099,491.209447 901.369684,490.872649 901.00972,490.65696 C902.00191,490.64744 902.99923,490.55686 903.98531,490.45261 C904.924472,490.468675 905.832114,490.113892 906.51143,489.46519 C906.613744,489.352455 906.67566,489.208895 906.68743,489.05711 C906.68865,488.74644 906.36809,488.54325 906.08062,488.42551 C905.697956,488.268902 905.300362,488.151602 904.89397,488.07542 C904.609882,488.035515 904.32875,487.976833 904.05242,487.89976 C903.806429,487.810267 903.569251,487.698196 903.34392,487.56498 C902.855147,487.29594 902.366377,487.026917 901.87761,486.75791 C901.669345,486.656852 901.478022,486.524089 901.31047,486.36436 C901.06147,486.10087 900.95134,485.72849 900.69756,485.46958 C900.46379,485.23099 899.51836,484.91691 899.38311,485.40574 C899.32964,485.59879 899.53362,485.81248 899.55828,486.02836 C899.231181,485.822885 898.892346,485.636713 898.54351,485.4708 C898.56243,485.42765 898.58757,485.38847 898.60393,485.3438 C896.981521,484.043396 895.692686,482.374768 894.84441,480.47643 C894.9898,480.47966 895.13506,480.48894 895.28041,480.48778 C895.527805,480.510529 895.775708,480.44997 895.98475,480.31572 C896.159429,480.156866 896.251461,479.92658 896.23438,479.69109 C896.215591,479.458979 896.158636,479.231559 896.06581,479.01799 C895.8585,478.377919 895.52781,477.784658 895.09242,477.27172 C894.670628,476.864391 894.189905,476.522896 893.66642,476.25872 L893.58195,476.21124 C893.5463,476.10324 893.51383,475.99424 893.47074,475.88867 C893.154967,475.232355 892.797759,474.596795 892.40128,473.98584 C891.843322,472.962846 891.431717,471.866598 891.17851,470.72918 C891.08486,470.036293 890.819538,469.377794 890.40666,468.81353 C889.64347,467.97247 888.33466,467.99371 887.20622,468.12091 C886.56242,468.19348 885.92155,468.29046 885.28141,468.38991 C885.27531,468.37386 885.27494,468.35616 885.26847,468.34023 C885.188204,468.189545 885.138153,468.024629 885.12113,467.85475 C885.137096,467.715842 885.167493,467.578977 885.21183,467.44637 C885.281709,467.111588 885.176165,466.764276 884.93183,466.52498 C884.90522,466.49947 884.87883,466.47072 884.85236,466.4427 C884.9228,466.27644 884.987467,466.108717 885.04636,465.93953 C885.153768,465.813355 885.204653,465.64861 885.18711,465.48384 C885.303348,465.074032 885.364795,464.650634 885.36985,464.22469 C885.238367,463.283702 885.204497,462.331643 885.26878,461.38369 C885.235441,461.148882 885.150024,460.924499 885.01878,460.72696 C884.99534,460.6954 884.95628,460.68096 884.92967,460.65286 C885.124468,460.394524 885.349726,460.160637 885.60056,459.95627 C886.093482,459.57583 886.620552,459.241823 887.17503,458.95852 C887.30784,458.8854 887.49314,458.8334 887.62009,458.7496 C887.814769,458.782393 888.011412,458.802213 888.20872,458.80893 C889.696788,458.817969 891.092607,458.08894 891.935395,456.862508 C892.778182,455.636075 892.958372,454.071682 892.41648,452.68576 C892.826968,452.58602 893.180118,452.325427 893.39648,451.96261 C893.61608,451.581342 893.747471,451.155719 893.781,450.71701 C893.851945,450.376814 893.784191,450.022372 893.59277,449.73233 C893.424439,449.569166 893.231127,449.433936 893.02014,449.33175 C892.729171,449.150042 892.484843,448.902662 892.30676,448.60946 C892.1803,448.40072 892.08976,448.17257 891.97607,447.95663 C891.591524,447.141257 890.785657,446.607196 889.88489,446.57077 C889.464929,446.624174 889.049239,446.707018 888.64089,446.81869 C887.24098,447.06418 885.71913,446.32345 884.42043,446.90115 C884.100789,447.056582 883.803724,447.25468 883.53737,447.49002 C883.17165,447.791593 882.82017,448.10928 882.48293,448.44308 C882.190012,448.692732 881.968325,449.015407 881.84035,449.37838 C881.66396,450.04092 882.08351,450.78122 881.81655,451.41275 C881.725155,451.593519 881.616101,451.764804 881.49098,451.9241 C881.19631,452.35623 881.51637,454.04324 881.4839,454.56527 C881.446276,454.820855 881.511219,455.08095 881.66457,455.28885 C881.703638,455.328123 881.747867,455.361899 881.79604,455.38925 C879.617916,456.166271 877.48772,457.071602 875.41664,458.10049 C872.930193,459.303248 870.866393,461.230969 869.49709,463.62973 C869.14553,464.31527 868.87819,465.04037 868.56009,465.74215 C868.13614,466.67801 867.62309,467.57034 867.11075,468.46103 C866.48587,469.54739 865.85989,470.63565 865.13723,471.65957 C864.725192,472.202432 864.343744,472.767847 863.99466,473.35318 C863.985359,473.438476 863.982827,473.524374 863.98709,473.61007 C864.000976,473.690903 863.992966,473.77398 863.96389,473.85067 C863.900456,473.940716 863.800353,473.997992 863.69058,474.00705 L863.67358,474.05111 C863.51033,474.577398 863.374968,475.111935 863.26806,475.65249 C863.05469,476.51149 862.7146,477.3406 862.58374,478.21603 C862.428214,478.440139 862.421252,478.735382 862.566043,478.966571 C862.710835,479.197761 862.9795,479.320383 863.24902,479.27829 C863.99817,479.61148 864.71997,480.00161 865.43945,480.39511 C865.42883,480.4479 865.41235,480.49875 865.40564,480.5527 C865.356867,481.689199 865.965473,482.752598 866.97009,483.28622 C867.962792,483.793367 869.049996,484.088832 870.16284,484.1539 C870.59424,484.20566 871.02832,484.22976 871.46045,484.27383 C872.090994,484.624502 872.762186,484.896474 873.45898,485.08365 C873.611131,485.127985 873.768341,485.152619 873.92676,485.15695 C874.355967,485.128198 874.749098,484.906724 874.99609,484.55453 C878.714528,484.759973 882.443178,484.683889 886.15014,484.32693 C887.17622,484.088056 888.254925,484.25528 889.16052,484.79361 C889.9646,485.44705 890.12622,486.60537 890.72363,487.45205 C891.157968,487.974048 891.645368,488.449504 892.17798,488.87076 C893.236831,489.991531 894.173039,491.22211 894.9707,492.54159 C895.776342,493.873973 896.94297,494.950853 898.33545,495.64749 C898.585935,495.2479 898.949445,494.931698 899.37988,494.73898 C899.49121,494.67276 899.59741,494.59549 899.70678,494.52426 C899.85383,494.762983 900.024929,494.986029 900.2174,495.18991 C900.36059,495.34482 900.50317,495.50845 900.63708,495.67727 C900.63281,495.6777 900.62915,495.6752 900.62488,495.67587 C900.43017,495.70645 900.36499,495.94973 900.34265,496.14554 C900.257083,496.895287 900.171417,497.64502 900.08565,498.39474 C900.055296,498.542902 900.065663,498.69652 900.11565,498.83926 C900.207958,498.994282 900.350803,499.112816 900.52019,499.17495 C901.216013,499.50886 901.968954,499.707494 902.73894,499.76028 C903.12639,499.78659 903.5158,499.77578 903.90252,499.80984 C904.536871,499.892016 905.164873,500.017391 905.78215,500.18509 C907.462498,500.568205 909.189849,500.703467 910.90935,500.58658 C911.264404,500.577973 911.615669,500.511431 911.94927,500.38958 C912.343811,500.20031 912.693684,499.929452 912.97576,499.59491 C913.334069,499.25492 913.599834,498.829235 913.74797,498.35803 C913.889284,497.873197 913.712331,497.351746 913.30513,497.05305 Z" id="Path" fill="#3F3D56"></path>
                <path d="M885.64083,446.81873 C885.80683,446.78962 885.97042,446.74445 886.13423,446.70228 C885.607731,446.636904 885.073291,446.688546 884.56905,446.85352 C884.926382,446.886005 885.286356,446.87432 885.64083,446.81873 Z" id="Path" fill="#2C84D8"></path>
                <path d="M888.97603,447.95667 C889.08968,448.17261 889.18026,448.40076 889.30672,448.6095 C889.484803,448.902702 889.729131,449.150082 890.0201,449.33179 C890.231087,449.433976 890.424399,449.569206 890.59273,449.73237 C890.784151,450.022412 890.851905,450.376854 890.78096,450.71705 C890.747431,451.155759 890.61604,451.581382 890.39644,451.96265 C890.180078,452.325467 889.826928,452.58606 889.41644,452.6858 C890.043266,454.168563 889.812115,455.875093 888.813431,457.137681 C887.814747,458.400268 886.207307,459.018177 884.62005,458.74964 C884.49305,458.83344 884.3078,458.88544 884.17499,458.95856 C883.620512,459.241863 883.093442,459.57587 882.60052,459.95631 C882.349686,460.160677 882.124428,460.394564 881.92963,460.6529 C881.95624,460.68104 881.9953,460.69544 882.01874,460.727 C882.149984,460.924539 882.235401,461.148922 882.26874,461.38373 C882.204457,462.331683 882.238327,463.283742 882.36981,464.22473 C882.364755,464.650674 882.303308,465.074072 882.18707,465.48388 C882.204613,465.64865 882.153728,465.813395 882.04632,465.93957 C881.98712,466.108757 881.922453,466.27648 881.85232,466.44274 C881.87881,466.47074 881.90518,466.49951 881.93179,466.52502 C882.176125,466.764316 882.281669,467.111628 882.21179,467.44641 C882.167453,467.579017 882.137056,467.715882 882.12109,467.85479 C882.138113,468.024669 882.188164,468.189585 882.26843,468.34027 C882.2749,468.3562 882.27527,468.3739 882.28137,468.38995 C882.92151,468.29052 883.56237,468.19354 884.20618,468.12095 C884.523357,468.083934 884.842206,468.06301 885.1615,468.05826 C885.137387,467.992984 885.123748,467.924306 885.12109,467.85477 C885.137056,467.715862 885.167453,467.578997 885.21179,467.44639 C885.281669,467.111608 885.176125,466.764296 884.93179,466.525 C884.90518,466.49949 884.87879,466.47074 884.85232,466.44272 C884.92276,466.27646 884.987427,466.108737 885.04632,465.93955 C885.153728,465.813375 885.204613,465.64863 885.18707,465.48386 C885.303308,465.074052 885.364755,464.650654 885.36981,464.22471 C885.238327,463.283722 885.204457,462.331663 885.26874,461.38371 C885.235401,461.148902 885.149984,460.924519 885.01874,460.72698 C884.9953,460.69542 884.95624,460.68098 884.92963,460.65288 C885.124428,460.394544 885.349686,460.160657 885.60052,459.95629 C886.093442,459.57585 886.620512,459.241843 887.17499,458.95854 C887.3078,458.88542 887.4931,458.83342 887.62005,458.74962 C887.814729,458.782413 888.011372,458.802233 888.20868,458.80895 C889.696748,458.817989 891.092567,458.08896 891.935355,456.862528 C892.778142,455.636095 892.958332,454.071702 892.41644,452.68578 C892.826928,452.58604 893.180078,452.325447 893.39644,451.96263 C893.61604,451.581362 893.747431,451.155739 893.78096,450.71703 C893.851905,450.376834 893.784151,450.022392 893.59273,449.73235 C893.424399,449.569186 893.231087,449.433956 893.0201,449.33177 C892.729131,449.150062 892.484803,448.902682 892.30672,448.60948 C892.18026,448.40074 892.08972,448.17259 891.97603,447.95665 C891.591484,447.141277 890.785617,446.607216 889.88485,446.57079 C889.464889,446.624194 889.049199,446.707038 888.64085,446.81871 C888.411702,446.855186 888.179685,446.870511 887.94773,446.86449 C888.383711,447.127928 888.739314,447.505622 888.97603,447.95667 L888.97603,447.95667 Z" id="Path" fill="#2C84D8"></path>
                <path d="M913.30513,497.05305 C913.119374,496.953962 912.917377,496.888936 912.7087,496.86105 C911.664563,496.69527 910.62998,496.474091 909.60933,496.19845 C908.584379,495.920333 907.642737,495.396404 906.86605,494.67209 C906.576135,494.331713 906.252412,494.02165 905.89986,493.74667 C905.534439,493.470948 905.041173,493.435508 904.64009,493.65616 C904.599699,493.687963 904.562349,493.723449 904.52852,493.76216 C904.3857,493.6678 904.242797,493.573467 904.09981,493.47916 C903.338337,492.97794 902.5732,492.482357 901.8044,491.99241 L901.77315,491.97251 C901.795109,491.851736 901.795854,491.728059 901.77535,491.60703 C901.641099,491.209447 901.369684,490.872649 901.00972,490.65696 C902.00191,490.64744 902.99923,490.55686 903.98531,490.45261 C904.924472,490.468675 905.832114,490.113892 906.51143,489.46519 C906.613744,489.352455 906.67566,489.208895 906.68743,489.05711 C906.68865,488.74644 906.36809,488.54325 906.08062,488.42551 C905.697956,488.268902 905.300362,488.151602 904.89397,488.07542 C904.609882,488.035515 904.32875,487.976833 904.05242,487.89976 C903.806429,487.810267 903.569251,487.698196 903.34392,487.56498 C902.855147,487.29594 902.366377,487.026917 901.87761,486.75791 C901.669345,486.656852 901.478022,486.524089 901.31047,486.36436 C901.06147,486.10087 900.95134,485.72849 900.69756,485.46958 C900.46379,485.23099 899.51836,484.91691 899.38311,485.40574 C899.32964,485.59879 899.53362,485.81248 899.55828,486.02836 C899.231181,485.822885 898.892346,485.636713 898.54351,485.4708 C898.56243,485.42765 898.58757,485.38847 898.60393,485.3438 C896.981521,484.043396 895.692686,482.374768 894.84441,480.47643 C894.9898,480.47966 895.13506,480.48894 895.28041,480.48778 C895.527805,480.510529 895.775708,480.44997 895.98475,480.31572 C896.159429,480.156866 896.251461,479.92658 896.23438,479.69109 C896.215591,479.458979 896.158636,479.231559 896.06581,479.01799 C895.8585,478.377919 895.52781,477.784658 895.09242,477.27172 C894.670628,476.864391 894.189905,476.522896 893.66642,476.25872 L893.58195,476.21124 C893.5463,476.10324 893.51383,475.99424 893.47074,475.88867 C893.154967,475.232355 892.797759,474.596795 892.40128,473.98584 C891.843322,472.962846 891.431717,471.866598 891.17851,470.72918 C891.08486,470.036293 890.819538,469.377794 890.40666,468.81353 C889.64347,467.97247 888.33466,467.99371 887.20622,468.12091 C886.95402,468.14935 886.70365,468.19165 886.45222,468.22625 C886.817047,468.33341 887.146584,468.536173 887.40669,468.81353 C887.819568,469.377794 888.08489,470.036293 888.17854,470.72918 C888.431747,471.866598 888.843352,472.962846 889.40131,473.98584 C889.797789,474.596795 890.154997,475.232355 890.47077,475.88867 C890.51386,475.99426 890.54633,476.10327 890.58198,476.21124 L890.66645,476.25872 C891.189935,476.522896 891.670658,476.864391 892.09245,477.27172 C892.52784,477.784658 892.85853,478.377919 893.06584,479.01799 C893.158666,479.231559 893.215621,479.458979 893.23441,479.69109 C893.251491,479.92658 893.159459,480.156866 892.98478,480.31572 C892.775738,480.44997 892.527835,480.510529 892.28044,480.48778 C892.13505,480.48894 891.98979,480.47966 891.84444,480.47643 C892.692716,482.374768 893.981551,484.043396 895.60396,485.3438 C895.5876,485.38848 895.56246,485.42766 895.54354,485.4708 C895.892376,485.636713 896.231211,485.822885 896.55831,486.02836 C896.53365,485.81248 896.32967,485.59879 896.38314,485.40574 C896.51839,484.91691 897.46382,485.23099 897.69759,485.46958 C897.95137,485.72849 898.06148,486.10087 898.3105,486.36436 C898.478052,486.524089 898.669375,486.656852 898.87764,486.75791 C899.366407,487.02689 899.855177,487.295913 900.34395,487.56498 C900.569281,487.698196 900.806459,487.810267 901.05245,487.89976 C901.32878,487.976833 901.609912,488.035515 901.894,488.07542 C902.300392,488.151602 902.697986,488.268902 903.08065,488.42551 C903.36812,488.54325 903.68865,488.74644 903.68746,489.05711 C903.67569,489.208895 903.613774,489.352455 903.51146,489.46519 C902.832144,490.113892 901.924502,490.468675 900.98534,490.45261 C899.99926,490.55686 899.00194,490.64744 898.00975,490.65696 C898.369714,490.872649 898.641129,491.209447 898.77538,491.60703 C898.795884,491.728059 898.795139,491.851736 898.77318,491.97251 L898.80443,491.99241 C899.57323,492.482337 900.338367,492.97792 901.09984,493.47916 C901.242907,493.57328 901.38581,493.667613 901.52855,493.76216 C901.562379,493.723449 901.599729,493.687963 901.64012,493.65616 C902.041203,493.435508 902.534469,493.470948 902.89989,493.74667 C903.252442,494.02165 903.576165,494.331713 903.86608,494.67209 C904.642767,495.396404 905.584409,495.920333 906.60936,496.19845 C907.63001,496.474091 908.664593,496.69527 909.70873,496.86105 C909.917407,496.888936 910.119404,496.953962 910.30516,497.05305 C910.712401,497.351749 910.88937,497.87324 910.74803,498.3581 C910.599894,498.829305 910.334129,499.25499 909.97582,499.59498 C909.693744,499.929522 909.343871,500.20038 908.94933,500.38965 C908.705153,500.48227 908.44873,500.538635 908.18822,500.55695 C909.093168,500.636859 910.002935,500.646779 910.90941,500.58662 C911.264464,500.578013 911.615729,500.511471 911.94933,500.38962 C912.343871,500.20035 912.693744,499.929492 912.97582,499.59495 C913.334129,499.25496 913.599894,498.829275 913.74803,498.35807 C913.889349,497.873212 913.71237,497.351736 913.30513,497.05305 Z" id="Path" fill="#2C84D8"></path>
                <path d="M896.6689,494.54914 C896.71846,494.59449 896.7669,494.64136 896.81758,494.68519 C896.78072,494.63135 896.73983,494.57966 896.70674,494.5243 L896.6689,494.54914 Z" id="Path" fill="#FF6584"></path>
                <path d="M941.33858,486.23783 C941.33858,496.83268 936.61472,493.9113 930.78758,493.9113 C924.96044,493.9113 920.23658,496.83268 920.23658,486.23783 C920.23658,475.64298 930.78758,455.54395 930.78758,455.54395 C930.78758,455.54395 941.33858,475.643 941.33858,486.23783 Z" id="Path" fill="#2C84D8"></path>
                <path d="M935.58347,490.29149 C935.58347,495.10733 933.43627,493.77943 930.78756,493.77943 C928.13885,493.77943 925.99164,495.10733 925.99164,490.29149 C925.99164,485.47565 930.78756,476.33973 930.78756,476.33973 C930.78756,476.33973 935.58347,485.47565 935.58347,490.29149 Z" id="Path" fill="#000000" opacity="0.1"></path>
                <path d="M944.0127,457.92815 C944.0127,457.92815 946.2047,455.64887 946.16108,453.41323" id="Path" fill="#2C84D8"></path>
                <path d="M921.54916,438.9359 C921.54916,438.9359 920.63406,435.9089 918.66302,434.85299" id="Path" fill="#2C84D8"></path>
                <path d="M899.54916,397.9359 C899.54916,397.9359 898.63406,394.9089 896.66302,393.85299" id="Path" fill="#2C84D8"></path>
                <path d="M925.54916,452.9359 C925.54916,452.9359 924.63406,449.9089 922.66302,448.85299" id="Path" fill="#2C84D8"></path>
                <path d="M922.54916,403.9359 C922.54916,403.9359 921.63406,400.9089 919.66302,399.85299" id="Path" fill="#2C84D8"></path>
                <path d="M916.54916,421.9359 C916.54916,421.9359 915.63406,418.9089 913.66302,417.85299" id="Path" fill="#2C84D8"></path>
                <path d="M942.0127,488.92815 C942.0127,488.92815 944.2047,486.64887 944.16108,484.41323" id="Path" fill="#2C84D8"></path>
                <path d="M946.0127,471.92815 C946.0127,471.92815 948.2047,469.64887 948.16108,467.41323" id="Path" fill="#2C84D8"></path>
                <rect id="Rectangle" fill="#2C84D8" transform="translate(906.787552, 473.543924) rotate(-18.434950) translate(-906.787552, -473.543924) " x="894.138442" y="473.043644" width="25.29822" height="1.00056"></rect>
                <path d="M916.88678,470.02342 C917.78756,473.54395 916.27517,472.70297 914.8957,472.98842 C913.51623,473.27387 913.78756,474.54391 911.89131,471.05722 C910.57984,468.64578 912.50293,468.37767 913.88239,468.09222 C915.26185,467.80677 916.27169,467.61941 916.88678,470.02342 Z" id="Path" fill="#2C84D8"></path>
                <polygon id="Path" fill="#F2F2F2" opacity="0.1" points="574.727 277.954 552.908 257.892 552.712 257.941 543.975 249.998 543.553 249.875 544.008 249.702 451.089 164.269 361.353 81.76 315.628 106.014 311.888 106.842 366.685 189.542 574.068 502.542 818.988 502.542 574.728 277.955"></polygon>
                <circle id="Oval" fill="#F2F2F2" cx="334.78756" cy="92.54395" r="27"></circle>
            </g>
        </g>
    </g>
</svg>