<?xml version="1.0" encoding="UTF-8"?>
<svg width="1024px" height="807px" viewBox="0 0 1024 807" version="1.1" xmlns="http://www.w3.org/2000/svg" xmlns:xlink="http://www.w3.org/1999/xlink">
    <title>undraw_File_bundle_xl7g</title>
    <g id="Page-1" stroke="none" stroke-width="1" fill="none" fill-rule="evenodd">
        <g id="Desktop-HD" transform="translate(-208.000000, -109.000000)">
            <g id="undraw_File_bundle_xl7g" transform="translate(208.000000, 109.000000)">
                <path d="M530.37,77.02 C537.13,121.58 518.37,161.39 518.37,161.39 C518.37,161.39 488.6,128.96 481.84,84.39 C475.08,39.82 493.84,0.02 493.84,0.02 C493.84,0.02 523.61,32.44 530.37,77.02 Z" id="Path" fill="#778398" fill-rule="nonzero"></path>
                <path d="M656.07,148.02 C680.6,147.75 700.63,160.91 700.63,160.91 C700.63,160.91 680.89,174.5 656.36,174.76 C631.83,175.02 611.8,161.87 611.8,161.87 C611.8,161.87 631.54,148.29 656.07,148.02 Z" id="Path" fill="#778398" fill-rule="nonzero"></path>
                <path d="M587.09,80.28 C564.26,105.37 559.43,138.16 559.43,138.16 C559.43,138.16 591.61,130.26 614.43,105.16 C637.25,80.06 642.1,47.29 642.1,47.29 C642.1,47.29 609.92,55.19 587.09,80.28 Z" id="Path" fill="#46455B" fill-rule="nonzero"></path>
                <ellipse id="Oval" fill="#778398" fill-rule="nonzero" opacity="0.1" cx="512" cy="782.54" rx="512" ry="23.5"></ellipse>
                <polyline id="Path" fill="#778398" fill-rule="nonzero" points="208.3 545.74 358.94 545.74 358.94 775.33 196 775.33 196 545.74 208.3 545.74"></polyline>
                <rect id="Rectangle" fill="#46455B" fill-rule="nonzero" x="216.57" y="578.66" width="121.79" height="26.33"></rect>
                <rect id="Rectangle" fill="#373E46" fill-rule="nonzero" x="227.27" y="637.5" width="100.4" height="1.65"></rect>
                <rect id="Rectangle" fill="#373E46" fill-rule="nonzero" x="227.27" y="646.55" width="100.4" height="1.65"></rect>
                <rect id="Rectangle" fill="#373E46" fill-rule="nonzero" x="227.27" y="655.6" width="100.4" height="1.65"></rect>
                <rect id="Rectangle" fill="#373E46" fill-rule="nonzero" x="227.27" y="664.65" width="100.4" height="1.65"></rect>
                <rect id="Rectangle" fill="#373E46" fill-rule="nonzero" x="227.27" y="673.7" width="100.4" height="1.65"></rect>
                <rect id="Rectangle" fill="#373E46" fill-rule="nonzero" x="227.27" y="682.76" width="100.4" height="1.65"></rect>
                <rect id="Rectangle" fill="#373E46" fill-rule="nonzero" x="227.27" y="691.81" width="100.4" height="1.65"></rect>
                <rect id="Rectangle" fill="#373E46" fill-rule="nonzero" x="227.27" y="700.86" width="100.4" height="1.65"></rect>
                <rect id="Rectangle" fill="#373E46" fill-rule="nonzero" x="227.27" y="709.91" width="100.4" height="1.65"></rect>
                <rect id="Rectangle" fill="#373E46" fill-rule="nonzero" x="227.27" y="718.96" width="100.4" height="1.65"></rect>
                <rect id="Rectangle" fill="#373E46" fill-rule="nonzero" x="227.27" y="728.02" width="100.4" height="1.65"></rect>
                <polyline id="Path" fill="#778398" fill-rule="nonzero" points="442.83 545.74 593.47 545.74 593.47 775.33 430.53 775.33 430.53 545.74 442.83 545.74"></polyline>
                <rect id="Rectangle" fill="#46455B" fill-rule="nonzero" x="451.1" y="578.66" width="121.79" height="26.33"></rect>
                <rect id="Rectangle" fill="#373E46" fill-rule="nonzero" x="461.8" y="637.5" width="100.4" height="1.65"></rect>
                <rect id="Rectangle" fill="#373E46" fill-rule="nonzero" x="461.8" y="646.55" width="100.4" height="1.65"></rect>
                <rect id="Rectangle" fill="#373E46" fill-rule="nonzero" x="461.8" y="655.6" width="100.4" height="1.65"></rect>
                <rect id="Rectangle" fill="#373E46" fill-rule="nonzero" x="461.8" y="664.65" width="100.4" height="1.65"></rect>
                <rect id="Rectangle" fill="#373E46" fill-rule="nonzero" x="461.8" y="673.7" width="100.4" height="1.65"></rect>
                <rect id="Rectangle" fill="#373E46" fill-rule="nonzero" x="461.8" y="682.76" width="100.4" height="1.65"></rect>
                <rect id="Rectangle" fill="#373E46" fill-rule="nonzero" x="461.8" y="691.81" width="100.4" height="1.65"></rect>
                <rect id="Rectangle" fill="#373E46" fill-rule="nonzero" x="461.8" y="700.86" width="100.4" height="1.65"></rect>
                <rect id="Rectangle" fill="#373E46" fill-rule="nonzero" x="461.8" y="709.91" width="100.4" height="1.65"></rect>
                <rect id="Rectangle" fill="#373E46" fill-rule="nonzero" x="461.8" y="718.96" width="100.4" height="1.65"></rect>
                <rect id="Rectangle" fill="#373E46" fill-rule="nonzero" x="461.8" y="728.02" width="100.4" height="1.65"></rect>
                <polyline id="Path" fill="#778398" fill-rule="nonzero" points="677.36 545.74 828 545.74 828 775.33 665.06 775.33 665.06 545.74 677.36 545.74"></polyline>
                <rect id="Rectangle" fill="#46455B" fill-rule="nonzero" x="685.64" y="578.66" width="121.79" height="26.33"></rect>
                <rect id="Rectangle" fill="#373E46" fill-rule="nonzero" x="696.33" y="637.5" width="100.4" height="1.65"></rect>
                <rect id="Rectangle" fill="#373E46" fill-rule="nonzero" x="696.33" y="646.55" width="100.4" height="1.65"></rect>
                <rect id="Rectangle" fill="#373E46" fill-rule="nonzero" x="696.33" y="655.6" width="100.4" height="1.65"></rect>
                <rect id="Rectangle" fill="#373E46" fill-rule="nonzero" x="696.33" y="664.65" width="100.4" height="1.65"></rect>
                <rect id="Rectangle" fill="#373E46" fill-rule="nonzero" x="696.33" y="673.7" width="100.4" height="1.65"></rect>
                <rect id="Rectangle" fill="#373E46" fill-rule="nonzero" x="696.33" y="682.76" width="100.4" height="1.65"></rect>
                <rect id="Rectangle" fill="#373E46" fill-rule="nonzero" x="696.33" y="691.81" width="100.4" height="1.65"></rect>
                <rect id="Rectangle" fill="#373E46" fill-rule="nonzero" x="696.33" y="700.86" width="100.4" height="1.65"></rect>
                <rect id="Rectangle" fill="#373E46" fill-rule="nonzero" x="696.33" y="709.91" width="100.4" height="1.65"></rect>
                <rect id="Rectangle" fill="#373E46" fill-rule="nonzero" x="696.33" y="718.96" width="100.4" height="1.65"></rect>
                <rect id="Rectangle" fill="#373E46" fill-rule="nonzero" x="696.33" y="728.02" width="100.4" height="1.65"></rect>
                <polyline id="Path" stroke="#373E46" points="512 545.74 512 387.74 277.47 545.74"></polyline>
                <line x1="746.53" y1="545.74" x2="512" y2="387.74" id="Path" stroke="#373E46"></line>
                <g id="Group" opacity="0.1" transform="translate(380.000000, 87.000000)" fill="#000000" fill-rule="nonzero">
                    <polygon id="Path" points="19.93 0.54 0 0.54 0 372.54 264 372.54 264 0.54"></polygon>
                </g>
                <polyline id="Path" fill="#778398" fill-rule="nonzero" points="404.45 95.04 638.68 95.04 638.68 452.04 385.32 452.04 385.32 95.04 404.45 95.04"></polyline>
                <rect id="Rectangle" fill="#46455B" fill-rule="nonzero" x="417.31" y="146.22" width="189.38" height="40.95"></rect>
                <rect id="Rectangle" fill="#373E46" fill-rule="nonzero" x="433.95" y="237.71" width="156.11" height="2.56"></rect>
                <rect id="Rectangle" fill="#373E46" fill-rule="nonzero" x="433.95" y="251.78" width="156.11" height="2.56"></rect>
                <rect id="Rectangle" fill="#373E46" fill-rule="nonzero" x="433.95" y="265.86" width="156.11" height="2.56"></rect>
                <rect id="Rectangle" fill="#373E46" fill-rule="nonzero" x="433.95" y="279.93" width="156.11" height="2.56"></rect>
                <rect id="Rectangle" fill="#373E46" fill-rule="nonzero" x="433.95" y="294.01" width="156.11" height="2.56"></rect>
                <rect id="Rectangle" fill="#373E46" fill-rule="nonzero" x="433.95" y="308.09" width="156.11" height="2.56"></rect>
                <rect id="Rectangle" fill="#373E46" fill-rule="nonzero" x="433.95" y="322.16" width="156.11" height="2.56"></rect>
                <rect id="Rectangle" fill="#373E46" fill-rule="nonzero" x="433.95" y="336.24" width="156.11" height="2.56"></rect>
                <rect id="Rectangle" fill="#373E46" fill-rule="nonzero" x="433.95" y="350.31" width="156.11" height="2.56"></rect>
                <rect id="Rectangle" fill="#373E46" fill-rule="nonzero" x="433.95" y="364.39" width="156.11" height="2.56"></rect>
                <rect id="Rectangle" fill="#373E46" fill-rule="nonzero" x="433.95" y="378.46" width="156.11" height="2.56"></rect>
                <path d="M828.12,671.02 C828.12,721.26 859.64,761.92 898.59,761.92" id="Path" fill="#46455B" fill-rule="nonzero"></path>
                <path d="M898.59,761.93 C898.59,711.12 933.77,670.01 977.24,670.01" id="Path" fill="#778398" fill-rule="nonzero"></path>
                <path d="M853.66,675.58 C853.66,723.31 873.76,761.93 898.59,761.93" id="Path" fill="#778398" fill-rule="nonzero"></path>
                <path d="M898.59,761.93 C898.59,697.01 939.25,644.47 989.49,644.47" id="Path" fill="#46455B" fill-rule="nonzero"></path>
                <ellipse id="Oval" fill="#778398" fill-rule="nonzero" opacity="0.1" cx="895.54" cy="776.33" rx="17.52" ry="2.96"></ellipse>
                <path d="M883.77,762.57 C883.77,762.57 893.77,762.26 896.77,760.12 C899.77,757.98 912.14,755.41 912.89,758.85 C913.64,762.29 927.89,775.96 916.62,776.05 C905.35,776.14 890.4,774.29 887.4,772.46 C884.4,770.63 883.77,762.57 883.77,762.57 Z" id="Path" fill="#A8A8A8" fill-rule="nonzero"></path>
                <path d="M916.83,774.85 C905.55,774.94 890.62,773.09 887.61,771.26 C885.32,769.87 884.41,764.86 884.1,762.56 L883.77,762.56 C883.77,762.56 884.4,770.62 887.41,772.45 C890.42,774.28 905.35,776.13 916.63,776.04 C919.89,776.04 921.01,774.85 920.95,773.14 C920.5,774.18 919.26,774.83 916.83,774.85 Z" id="Path" fill="#000000" fill-rule="nonzero" opacity="0.2"></path>
                <g id="Group-2" transform="translate(121.000000, 719.000000) scale(-1, 1) translate(-121.000000, -719.000000) translate(46.000000, 664.000000)" fill-rule="nonzero">
                    <path d="M0,1.55 C0,51.79 31.52,92.45 70.47,92.45" id="Path" fill="#46455B"></path>
                    <path d="M70.47,92.46 C70.47,41.65 105.65,0.54 149.12,0.54" id="Path" fill="#778398"></path>
                    <path d="M25.54,6.11 C25.54,53.84 45.64,92.46 70.47,92.46" id="Path" fill="#778398"></path>
                    <ellipse id="Oval" fill="#778398" opacity="0.1" cx="67.42" cy="106.86" rx="17.52" ry="2.96"></ellipse>
                    <path d="M55.65,93.1 C55.65,93.1 65.65,92.79 68.65,90.65 C71.65,88.51 84.02,85.94 84.77,89.38 C85.52,92.82 99.77,106.49 88.5,106.58 C77.23,106.67 62.28,104.82 59.28,102.99 C56.28,101.16 55.65,93.1 55.65,93.1 Z" id="Path" fill="#A8A8A8"></path>
                    <path d="M88.71,105.38 C77.43,105.47 62.5,103.62 59.49,101.79 C57.2,100.4 56.29,95.39 55.98,93.09 L55.65,93.09 C55.65,93.09 56.28,101.15 59.29,102.98 C62.3,104.81 77.23,106.66 88.51,106.57 C91.77,106.57 92.89,105.38 92.83,103.67 C92.38,104.71 91.14,105.36 88.71,105.38 Z" id="Path" fill="#000000" opacity="0.2"></path>
                </g>
            </g>
        </g>
    </g>
</svg>